<svg width="20" height="20" viewBox="0 0 20 20" fill="none" xmlns="http://www.w3.org/2000/svg">
<circle cx="10" cy="10" r="10" fill="#EBAF2D"/>
<path fill-rule="evenodd" clip-rule="evenodd" d="M13.4451 13.0515C13.6744 13.314 14.0827 13.3187 14.284 13.0352C15.0636 11.9346 15.3899 10.5763 15.1951 9.24174C15.145 8.89758 14.7786 8.71674 14.4555 8.84624L11.7459 9.93008C11.6594 9.96478 11.5824 10.0197 11.5215 10.0903C11.4606 10.1608 11.4175 10.245 11.3958 10.3356C11.374 10.4263 11.3744 10.5209 11.3967 10.6114C11.4191 10.7019 11.4628 10.7857 11.5242 10.8558L13.4451 13.0515ZM14.2851 6.96674C14.4858 7.25083 14.3452 7.63408 14.0226 7.76358L11.3831 8.81941C11.2944 8.85483 11.1984 8.86795 11.1035 8.85761C11.0086 8.84728 10.9177 8.8138 10.8387 8.76013C10.7597 8.70645 10.6952 8.63422 10.6506 8.54976C10.6061 8.46531 10.583 8.37122 10.5833 8.27574V5.43549C10.5833 5.08724 10.8866 4.81424 11.225 4.89591C12.4621 5.19269 13.5493 5.92857 14.2846 6.96674" fill="black"/>
<path fill-rule="evenodd" clip-rule="evenodd" d="M9.41666 4.84107C9.41666 4.49574 9.11741 4.22332 8.77966 4.29565C7.95924 4.47129 7.18636 4.82183 6.51376 5.32337C5.84116 5.82491 5.28466 6.46564 4.88224 7.20184C4.47982 7.93804 4.24094 8.75238 4.18191 9.58931C4.12288 10.4262 4.24508 11.2661 4.54017 12.0515C4.83527 12.8369 5.29632 13.5494 5.89186 14.1403C6.4874 14.7313 7.20342 15.1869 7.99106 15.4759C8.7787 15.765 9.61943 15.8808 10.4559 15.8153C11.2923 15.7498 12.1048 15.5047 12.8379 15.0967C13.1395 14.9287 13.1856 14.5267 12.9587 14.2672L9.58291 10.4084C9.47585 10.2862 9.41677 10.1293 9.41666 9.96682V4.84107Z" fill="black"/>
</svg>
