<svg width="20" height="20" viewBox="0 0 20 20" fill="none" xmlns="http://www.w3.org/2000/svg">
<circle cx="10" cy="10" r="10" fill="#15A097"/>
<path fill-rule="evenodd" clip-rule="evenodd" d="M13.4451 13.0515C13.6743 13.314 14.0827 13.3187 14.2839 13.0352C15.0636 11.9346 15.3898 10.5763 15.1951 9.24174C15.1449 8.89758 14.7786 8.71674 14.4554 8.84624L11.7458 9.93008C11.6593 9.96478 11.5824 10.0197 11.5214 10.0903C11.4605 10.1608 11.4174 10.245 11.3957 10.3356C11.374 10.4263 11.3743 10.5209 11.3967 10.6114C11.419 10.7019 11.4627 10.7857 11.5242 10.8558L13.4451 13.0515ZM14.2851 6.96674C14.4858 7.25083 14.3452 7.63408 14.0226 7.76358L11.383 8.81941C11.2943 8.85483 11.1983 8.86795 11.1034 8.85761C11.0085 8.84728 10.9176 8.8138 10.8386 8.76013C10.7597 8.70645 10.6951 8.63422 10.6506 8.54976C10.6061 8.46531 10.5829 8.37122 10.5833 8.27574V5.43549C10.5833 5.08724 10.8866 4.81424 11.2249 4.89591C12.462 5.19269 13.5492 5.92857 14.2845 6.96674" fill="white"/>
<path fill-rule="evenodd" clip-rule="evenodd" d="M9.41669 4.84107C9.41669 4.49574 9.11744 4.22332 8.77969 4.29565C7.95927 4.47129 7.18639 4.82183 6.51379 5.32337C5.84119 5.82491 5.28469 6.46564 4.88227 7.20184C4.47985 7.93804 4.24097 8.75238 4.18194 9.58931C4.12291 10.4262 4.24511 11.2661 4.5402 12.0515C4.8353 12.8369 5.29635 13.5494 5.89189 14.1403C6.48743 14.7313 7.20345 15.1869 7.99109 15.4759C8.77873 15.765 9.61946 15.8808 10.4559 15.8153C11.2924 15.7498 12.1049 15.5047 12.8379 15.0967C13.1395 14.9287 13.1856 14.5267 12.9587 14.2672L9.58294 10.4084C9.47588 10.2862 9.4168 10.1293 9.41669 9.96682V4.84107Z" fill="white"/>
</svg>
