<svg width="20" height="20" viewBox="0 0 20 20" fill="none" xmlns="http://www.w3.org/2000/svg">
<circle cx="10" cy="10" r="10" fill="#10A398"/>
<path d="M6 6V14.8182H6.73485V11.8788H14.0833V6H6ZM6.73485 6.73485H7.83712V7.83712H8.93939V6.73485H10.0417V7.83712H11.1439V6.73485H12.2462V7.83712H13.3485V8.93939H12.2462V10.0417H13.3485V11.1439H12.2462V10.0417H11.1439V11.1439H10.0417V10.0417H8.93939V11.1439H7.83712V10.0417H6.73485V8.93939H7.83712V7.83712H6.73485V6.73485ZM7.83712 8.93939V10.0417H8.93939V8.93939H7.83712ZM8.93939 8.93939H10.0417V7.83712H8.93939V8.93939ZM10.0417 8.93939V10.0417H11.1439V8.93939H10.0417ZM11.1439 8.93939H12.2462V7.83712H11.1439V8.93939Z" fill="white"/>
</svg>
