<svg width="20" height="20" viewBox="0 0 20 20" fill="none" xmlns="http://www.w3.org/2000/svg">
<circle cx="10" cy="10" r="10" fill="#15A097"/>
<path d="M15 10.739V13C15 13.3978 14.842 13.7794 14.5607 14.0607C14.2794 14.342 13.8978 14.5 13.5 14.5H6.5C6.10218 14.5 5.72064 14.342 5.43934 14.0607C5.15804 13.7794 5 13.3978 5 13V10.739L5.2765 10.8775C6.74196 11.6156 8.36002 12 10.0009 11.9998C11.6417 11.9996 13.2597 11.6149 14.725 10.8765L15 10.739ZM11 5C11.3978 5 11.7794 5.15804 12.0607 5.43934C12.342 5.72064 12.5 6.10218 12.5 6.5V7H13.5C13.8978 7 14.2794 7.15804 14.5607 7.43934C14.842 7.72064 15 8.10218 15 8.5V9.621L14.2765 9.983C12.982 10.6356 11.5554 10.9832 10.1058 10.9993C8.65621 11.0154 7.22218 10.6996 5.9135 10.076L5.59 9.916L5 9.621V8.5C5 8.10218 5.15804 7.72064 5.43934 7.43934C5.72064 7.15804 6.10218 7 6.5 7H7.5V6.5C7.5 6.10218 7.65804 5.72064 7.93934 5.43934C8.22064 5.15804 8.60218 5 9 5H11ZM10 9C9.86739 9 9.74021 9.05268 9.64645 9.14645C9.55268 9.24021 9.5 9.36739 9.5 9.5C9.49967 9.56566 9.51228 9.63074 9.5371 9.69153C9.56193 9.75232 9.59848 9.80762 9.64468 9.85429C9.69088 9.90095 9.74581 9.93805 9.80635 9.96348C9.86689 9.98891 9.93184 10.0022 9.9975 10.0025C10.0632 10.0028 10.1282 9.99022 10.189 9.9654C10.2498 9.94057 10.3051 9.90402 10.3518 9.85782C10.3984 9.81162 10.4356 9.75669 10.461 9.69615C10.4864 9.63561 10.4997 9.57066 10.5 9.505C10.5 9.224 10.276 9 10 9ZM11 6H9C8.86739 6 8.74021 6.05268 8.64645 6.14645C8.55268 6.24021 8.5 6.36739 8.5 6.5V7H11.5V6.5C11.5 6.36739 11.4473 6.24021 11.3536 6.14645C11.2598 6.05268 11.1326 6 11 6Z" fill="white"/>
</svg>
