<svg width="20" height="20" viewBox="0 0 20 20" fill="none" xmlns="http://www.w3.org/2000/svg">
<circle cx="10" cy="10" r="10" fill="white"/>
<path d="M10 3.875C7.58473 3.875 5.625 5.63895 5.625 7.8125C5.625 11.3125 10 16.125 10 16.125C10 16.125 14.375 11.3125 14.375 7.8125C14.375 5.63895 12.4153 3.875 10 3.875ZM10 10C9.65388 10 9.31554 9.89736 9.02775 9.70507C8.73997 9.51278 8.51566 9.23947 8.38321 8.9197C8.25076 8.59993 8.2161 8.24806 8.28363 7.90859C8.35115 7.56913 8.51782 7.2573 8.76256 7.01256C9.0073 6.76782 9.31913 6.60115 9.65859 6.53363C9.99806 6.4661 10.3499 6.50076 10.6697 6.63321C10.9895 6.76566 11.2628 6.98997 11.4551 7.27775C11.6474 7.56554 11.75 7.90388 11.75 8.25C11.7495 8.71397 11.565 9.1588 11.2369 9.48688C10.9088 9.81496 10.464 9.99949 10 10Z" fill="#343235"/>
</svg>
