<svg width="20" height="20" viewBox="0 0 20 20" fill="none" xmlns="http://www.w3.org/2000/svg">
<circle cx="10" cy="10" r="10" fill="white"/>
<g clip-path="url(#clip0_591_2934)">
<path d="M7.4285 5.22249C8 5.63899 8.445 6.20749 8.825 6.75149L9.046 7.07349L9.2545 7.38099C9.35879 7.53335 9.40338 7.71876 9.37978 7.90188C9.35617 8.08501 9.26602 8.25305 9.1265 8.37399L8.151 9.09849C8.10387 9.13252 8.0707 9.1825 8.05764 9.23915C8.04458 9.29579 8.05253 9.35526 8.08 9.40649C8.301 9.80799 8.694 10.406 9.144 10.856C9.5945 11.306 10.2205 11.725 10.65 11.971C10.7039 12.0012 10.7672 12.0097 10.8271 11.9946C10.887 11.9795 10.9389 11.9421 10.972 11.89L11.607 10.9235C11.7237 10.7684 11.896 10.6645 12.0876 10.6336C12.2792 10.6026 12.4754 10.647 12.635 10.7575L12.9665 10.987C13.586 11.417 14.2515 11.9055 14.7605 12.557C14.8412 12.6609 14.8926 12.7845 14.9092 12.9151C14.9258 13.0456 14.9071 13.1782 14.855 13.299C14.4365 14.2755 13.3775 15.107 12.276 15.0665L12.126 15.058L12.0095 15.048L11.8805 15.033L11.74 15.014L11.5875 14.989C11.5608 14.9842 11.5341 14.9792 11.5075 14.974L11.3395 14.938C11.3101 14.9315 11.2808 14.9249 11.2515 14.918L11.0685 14.871L10.876 14.816L10.675 14.751C9.752 14.438 8.5805 13.823 7.3785 12.621C6.177 11.4195 5.562 10.248 5.249 9.32499L5.184 9.12399L5.129 8.93149L5.082 8.74849L5.043 8.57549C5.03174 8.5213 5.02123 8.46696 5.0115 8.41249L4.9865 8.25999L4.9665 8.11949L4.952 7.99049L4.942 7.87399L4.934 7.72399C4.8935 6.62599 5.734 5.55949 6.706 5.14299C6.82299 5.09247 6.9511 5.07324 7.07776 5.08717C7.20443 5.10111 7.32529 5.14774 7.4285 5.22249ZM11.496 7.01999L11.554 7.02649C11.918 7.09068 12.2522 7.26846 12.5089 7.53432C12.7657 7.80019 12.9316 8.1405 12.983 8.50649C13.0013 8.63308 12.9704 8.76188 12.8967 8.86639C12.823 8.9709 12.712 9.04318 12.5866 9.06835C12.4611 9.09352 12.3309 9.06967 12.2225 9.00171C12.1141 8.93375 12.0359 8.82684 12.004 8.70299L11.9925 8.64549C11.9724 8.50204 11.9112 8.36748 11.8162 8.25808C11.7213 8.14868 11.5967 8.06911 11.4575 8.02899L11.38 8.01149C11.2544 7.98923 11.1421 7.91985 11.0661 7.81754C10.99 7.71522 10.9558 7.5877 10.9706 7.46106C10.9855 7.33441 11.0481 7.21821 11.1458 7.13623C11.2434 7.05424 11.3687 7.01266 11.496 7.01999ZM11.5 5.49999C12.2956 5.49999 13.0587 5.81606 13.6213 6.37867C14.1839 6.94127 14.5 7.70434 14.5 8.49999C14.4999 8.62743 14.4511 8.75 14.3636 8.84267C14.2761 8.93534 14.1565 8.9911 14.0293 8.99857C13.9021 9.00604 13.7768 8.96465 13.6791 8.88285C13.5814 8.80106 13.5186 8.68503 13.5035 8.55849L13.5 8.49999C13.5002 7.9922 13.3071 7.50337 12.96 7.13275C12.6129 6.76213 12.1377 6.53751 11.631 6.50449L11.5 6.49999C11.3674 6.49999 11.2402 6.44731 11.1464 6.35354C11.0527 6.25977 11 6.13259 11 5.99999C11 5.86738 11.0527 5.7402 11.1464 5.64643C11.2402 5.55266 11.3674 5.49999 11.5 5.49999Z" fill="#343235"/>
</g>
<defs>
<clipPath id="clip0_591_2934">
<rect width="12" height="12" fill="white" transform="translate(4 4)"/>
</clipPath>
</defs>
</svg>
