<svg width="20" height="20" viewBox="0 0 20 20" fill="none" xmlns="http://www.w3.org/2000/svg">
<circle cx="10" cy="10" r="10" fill="#15A097"/>
<g clip-path="url(#clip0_629_2982)">
<path d="M13.1617 10.9961C13.1617 10.9961 13.1617 10.9984 13.1641 10.9984C13.3797 11.4531 13.5016 11.9617 13.5016 12.4984C13.4992 14.432 11.9336 16 10 16C8.06641 16 6.50078 14.432 6.50078 12.5008C6.50078 11.9641 6.62266 11.4555 6.83828 11.0008C6.87812 10.9164 6.92266 10.832 6.96953 10.75C7.07266 10.5719 7.18984 10.4055 7.32109 10.2508C7.96328 9.48672 8.92656 9.00156 10.0023 9.00156C10.7898 9.00156 11.5164 9.26172 12.1023 9.70234C12.3156 9.86406 12.5102 10.0469 12.6836 10.2531C12.8148 10.4078 12.932 10.5766 13.0352 10.7523C13.082 10.832 13.1242 10.9164 13.1641 10.9984L13.1617 10.9961ZM13.7805 10.5555C13.075 9.18672 11.6477 8.24922 10 8.24922C8.35234 8.24922 6.925 9.18672 6.21953 10.5555L4 8.75078L10 4L16 8.75078L13.7805 10.5578V10.5555Z" fill="white"/>
</g>
<defs>
<clipPath id="clip0_629_2982">
<rect width="12" height="12" fill="white" transform="translate(4 4)"/>
</clipPath>
</defs>
</svg>
