<svg width="20" height="20" viewBox="0 0 20 20" fill="none" xmlns="http://www.w3.org/2000/svg">
<circle cx="10" cy="10" r="10" fill="white"/>
<path d="M5.8 9.6C6.46188 9.6 7 9.06187 7 8.4C7 7.73812 6.46188 7.2 5.8 7.2C5.13813 7.2 4.6 7.73812 4.6 8.4C4.6 9.06187 5.13813 9.6 5.8 9.6ZM14.2 9.6C14.8619 9.6 15.4 9.06187 15.4 8.4C15.4 7.73812 14.8619 7.2 14.2 7.2C13.5381 7.2 13 7.73812 13 8.4C13 9.06187 13.5381 9.6 14.2 9.6ZM14.8 10.2H13.6C13.27 10.2 12.9719 10.3331 12.7544 10.5487C13.51 10.9631 14.0463 11.7112 14.1625 12.6H15.4C15.7319 12.6 16 12.3319 16 12V11.4C16 10.7381 15.4619 10.2 14.8 10.2ZM10 10.2C11.1606 10.2 12.1 9.26062 12.1 8.1C12.1 6.93937 11.1606 6 10 6C8.83938 6 7.9 6.93937 7.9 8.1C7.9 9.26062 8.83938 10.2 10 10.2ZM11.44 10.8H11.2844C10.8944 10.9875 10.4613 11.1 10 11.1C9.53875 11.1 9.1075 10.9875 8.71563 10.8H8.56C7.3675 10.8 6.4 11.7675 6.4 12.96V13.5C6.4 13.9969 6.80313 14.4 7.3 14.4H12.7C13.1969 14.4 13.6 13.9969 13.6 13.5V12.96C13.6 11.7675 12.6325 10.8 11.44 10.8ZM7.24563 10.5487C7.02813 10.3331 6.73 10.2 6.4 10.2H5.2C4.53813 10.2 4 10.7381 4 11.4V12C4 12.3319 4.26812 12.6 4.6 12.6H5.83563C5.95375 11.7112 6.49 10.9631 7.24563 10.5487Z" fill="black"/>
</svg>
